<svg width="565" height="681" viewBox="0 0 565 681" fill="none" xmlns="http://www.w3.org/2000/svg">
<path d="M67.7754 2.03929C82.5344 -1.46963 97.1342 -0.17207 110.579 3.81175C135.156 11.0941 156.432 27.5052 169.258 41.4983C262.24 -4.23488 353.833 20.2498 392.826 40.9524C397.384 34.8292 404.314 28.4091 412.594 22.6311C423.386 15.0999 437.018 8.27125 452.006 4.38597C482.205 -3.4423 518.178 0.715282 546.449 35.1467C567.747 61.0852 567.357 94.9963 558.15 123.717C553.52 138.162 546.578 151.617 538.667 162.614C531.886 172.042 524.186 179.944 516.35 185.04C519.542 205.209 524.517 224.838 523.304 247.577C521.993 272.155 513.62 300.454 489.787 339.484C475.558 382.157 479.412 443.289 490.161 505.421C500.916 567.585 518.329 629.536 530.102 672.867C530.97 676.065 529.082 679.362 525.885 680.231C522.687 681.1 519.39 679.212 518.522 676.014C506.794 632.85 489.208 570.303 478.337 507.467C467.513 444.899 463.103 380.82 478.629 335.015L478.845 334.378L479.196 333.806C502.586 295.646 510.138 269.109 511.32 246.938C512.528 224.286 507.258 206.228 503.874 182.803L503.271 178.626L506.997 176.647C513.894 172.983 521.686 165.671 528.926 155.607C536.109 145.621 542.478 133.294 546.723 120.054C555.266 93.4036 554.875 64.3194 537.175 42.7619C512.479 12.6854 481.701 9.08533 455.018 16.0022C441.564 19.4896 429.221 25.6607 419.461 32.4719C409.567 39.3764 402.86 46.5615 400.114 51.7483L397.167 57.3157L391.75 54.1008C358.202 34.196 264.665 5.85401 170.558 54.2766L166.297 56.468L163.216 52.7981C152.018 39.455 131.082 22.402 107.17 15.3166C95.3026 11.8003 82.8697 10.7853 70.5508 13.7141C58.2763 16.6325 45.7332 23.5559 33.7119 36.5207C9.99603 62.0984 8.26569 91.1828 16.3662 117.889C24.551 144.872 42.7252 168.999 57.8877 183.038L60.7149 185.656L59.5118 189.316C55.4899 201.545 49.6527 220.566 50.8672 244.956C52.0591 268.89 60.0685 298.382 84.0088 331.813L85.1612 333.407L85.9356 334.471L86.1944 335.76C98.4263 396.667 91.6272 454.839 80.2549 511.009C68.7903 567.635 52.9863 621.171 46.2657 675.182C45.8565 678.47 42.8585 680.804 39.5703 680.395C36.2823 679.985 33.9485 676.989 34.3575 673.7C41.1371 619.215 57.3329 563.752 68.4932 508.628C79.6649 453.449 86.1006 397.529 74.6768 339.387C49.1181 303.913 40.1994 272.012 38.8819 245.553C37.6747 221.309 42.8736 201.966 46.9424 189.182C31.2237 173.786 13.3188 149.183 4.88285 121.371C-4.14144 91.6196 -2.37164 57.7871 24.9121 28.3616C38.3905 13.8252 52.9721 5.55886 67.7754 2.03929Z" fill="url(#paint0_linear_300_11)"/>
<path fill-rule="evenodd" clip-rule="evenodd" d="M282.35 257.243C288.682 257.21 295.497 258.267 300.971 261.061C306.619 263.944 311.452 269.113 311.452 276.913V277.483L311.346 278.041C309.614 287.094 305.9 292.906 300.649 296.81C297.198 299.376 293.149 300.979 289.605 302.25C289.501 303.345 289.357 304.413 289.176 305.455C289.214 308.144 289.612 311.092 290.695 314.014C292.659 319.313 297.125 325.229 307.646 329.361C310.73 330.572 312.248 334.055 311.037 337.139C309.826 340.223 306.343 341.742 303.259 340.53C292.262 336.212 285.508 329.869 281.639 322.945C275.076 331.837 265.997 337.311 259.995 340.312C257.031 341.794 253.427 340.593 251.945 337.629C250.463 334.665 251.664 331.061 254.628 329.579C263.05 325.368 274.405 317.612 277.179 304.223C277.193 303.418 277.231 302.641 277.283 301.897C272.399 300.052 267.185 297.944 263.084 294.865C260.217 292.713 257.692 289.978 255.924 286.371C254.164 282.782 253.311 278.652 253.311 273.917C253.311 266.74 259.497 262.645 264.162 260.651C269.387 258.417 275.982 257.277 282.35 257.243ZM282.413 269.243C277.246 269.271 272.305 270.22 268.879 271.685C265.953 272.936 265.4 273.92 265.313 274.086C265.332 277.274 265.909 279.48 266.698 281.089C267.492 282.709 268.655 284.043 270.288 285.269C273.552 287.719 277.901 289.288 283.859 291.545C288.042 290.048 290.95 289.069 293.489 287.181C295.854 285.423 298.135 282.603 299.429 276.432C299.278 274.696 298.266 273.154 295.515 271.749C292.337 270.127 287.616 269.216 282.413 269.243Z" fill="url(#paint1_linear_300_11)"/>
<path d="M158.812 188.446C178.418 188.446 194.312 204.116 194.312 223.446C194.312 242.776 178.418 258.446 158.812 258.446C139.205 258.446 123.312 242.776 123.312 223.446C123.312 204.116 139.205 188.446 158.812 188.446Z" fill="url(#paint2_linear_300_11)"/>
<path d="M405.812 188.446C425.418 188.446 439.812 204.116 439.812 223.446C439.812 242.776 425.418 258.446 405.812 258.446C386.205 258.446 370.312 242.776 370.312 223.446C370.312 204.116 386.205 188.446 405.812 188.446Z" fill="url(#paint3_linear_300_11)"/>
<path d="M95.128 87.5793C98.0917 86.0975 101.696 87.2984 103.178 90.2619C104.66 93.2257 103.459 96.8297 100.495 98.3117C94.1074 101.506 88.0078 108.815 82.8741 117.648C77.8489 126.293 74.2742 135.478 72.5567 141.177C71.6005 144.35 68.2529 146.147 65.0801 145.191C61.9074 144.234 60.1103 140.887 61.0664 137.714C63.0156 131.247 66.941 121.181 72.4991 111.618C77.9485 102.243 85.516 92.3855 95.128 87.5793Z" fill="url(#paint4_linear_300_11)"/>
<path d="M459.119 87.9397C460.779 85.072 464.45 84.093 467.317 85.7532C476.411 91.018 483.649 101.265 488.908 110.944C494.28 120.83 498.134 131.158 500.069 137.757C501.002 140.937 499.18 144.271 496 145.203C492.82 146.136 489.486 144.314 488.554 141.134C486.823 135.233 483.275 125.711 478.364 116.673C473.34 107.427 467.412 99.6731 461.306 96.1379C458.438 94.4777 457.459 90.8074 459.119 87.9397Z" fill="url(#paint5_linear_300_11)"/>
<path d="M78.2784 47.467C83.6817 46.9846 92.2709 47.4287 101.327 50.1311C110.42 52.8443 120.375 57.9565 127.939 67.1252C130.048 69.6813 129.686 73.4627 127.13 75.5715C124.574 77.6802 120.792 77.3177 118.684 74.7619C113.048 67.9307 105.42 63.8752 97.8955 61.6301C90.3356 59.3743 83.2747 59.0683 79.3448 59.4192C76.0443 59.7137 73.1297 57.2772 72.835 53.9768C72.5403 50.6762 74.9778 47.7617 78.2784 47.467Z" fill="url(#paint6_linear_300_11)"/>
<path d="M482.312 47.4455C485.625 47.4455 488.312 50.1318 488.312 53.4455C488.312 56.7592 485.625 59.4455 482.312 59.4455C464.02 59.4455 449.711 68.0687 445.263 71.9612C442.769 74.1432 438.978 73.8905 436.796 71.3967C434.614 68.9029 434.867 65.112 437.36 62.9299C443.579 57.489 460.603 47.4455 482.312 47.4455Z" fill="url(#paint7_linear_300_11)"/>
<defs>
<linearGradient id="paint0_linear_300_11" x1="0" y1="0" x2="588.058" y2="249.855" gradientUnits="userSpaceOnUse">
<stop stop-color="#164A9F"/>
<stop offset="1" stop-color="#0A68FE"/>
</linearGradient>
<linearGradient id="paint1_linear_300_11" x1="0" y1="0" x2="588.058" y2="249.855" gradientUnits="userSpaceOnUse">
<stop stop-color="#164A9F"/>
<stop offset="1" stop-color="#0A68FE"/>
</linearGradient>
<linearGradient id="paint2_linear_300_11" x1="0" y1="0" x2="588.058" y2="249.855" gradientUnits="userSpaceOnUse">
<stop stop-color="#164A9F"/>
<stop offset="1" stop-color="#0A68FE"/>
</linearGradient>
<linearGradient id="paint3_linear_300_11" x1="0" y1="0" x2="588.058" y2="249.855" gradientUnits="userSpaceOnUse">
<stop stop-color="#164A9F"/>
<stop offset="1" stop-color="#0A68FE"/>
</linearGradient>
<linearGradient id="paint4_linear_300_11" x1="0" y1="0" x2="588.058" y2="249.855" gradientUnits="userSpaceOnUse">
<stop stop-color="#164A9F"/>
<stop offset="1" stop-color="#0A68FE"/>
</linearGradient>
<linearGradient id="paint5_linear_300_11" x1="0" y1="0" x2="588.058" y2="249.855" gradientUnits="userSpaceOnUse">
<stop stop-color="#164A9F"/>
<stop offset="1" stop-color="#0A68FE"/>
</linearGradient>
<linearGradient id="paint6_linear_300_11" x1="0" y1="0" x2="588.058" y2="249.855" gradientUnits="userSpaceOnUse">
<stop stop-color="#164A9F"/>
<stop offset="1" stop-color="#0A68FE"/>
</linearGradient>
<linearGradient id="paint7_linear_300_11" x1="0" y1="0" x2="588.058" y2="249.855" gradientUnits="userSpaceOnUse">
<stop stop-color="#164A9F"/>
<stop offset="1" stop-color="#0A68FE"/>
</linearGradient>
</defs>
</svg>
